<?xml version="1.0" encoding="UTF-8" standalone="no"?><svg xmlns="http://www.w3.org/2000/svg" xmlns:xlink="http://www.w3.org/1999/xlink" contentScriptType="application/ecmascript" contentStyleType="text/css" height="1438px" preserveAspectRatio="none" style="width:959px;height:1438px;" version="1.1" viewBox="0 0 959 1438" width="959px" zoomAndPan="magnify"><defs><filter height="300%" id="f1vps8o89xwdl4" width="300%" x="-1" y="-1"><feGaussianBlur result="blurOut" stdDeviation="2.0"/><feColorMatrix in="blurOut" result="blurOut2" type="matrix" values="0 0 0 0 0 0 0 0 0 0 0 0 0 0 0 0 0 0 .4 0"/><feOffset dx="4.0" dy="4.0" in="blurOut2" result="blurOut3"/><feBlend in="SourceGraphic" in2="blurOut3" mode="normal"/></filter></defs><g><line style="stroke: #A80036; stroke-width: 1.0; stroke-dasharray: 5.0,5.0;" x1="32" x2="32" y1="38.2969" y2="1390.6094"/><line style="stroke: #A80036; stroke-width: 1.0; stroke-dasharray: 5.0,5.0;" x1="199.5" x2="199.5" y1="38.2969" y2="1390.6094"/><line style="stroke: #A80036; stroke-width: 1.0; stroke-dasharray: 5.0,5.0;" x1="364" x2="364" y1="38.2969" y2="1390.6094"/><line style="stroke: #A80036; stroke-width: 1.0; stroke-dasharray: 5.0,5.0;" x1="618.5" x2="618.5" y1="38.2969" y2="1390.6094"/><line style="stroke: #A80036; stroke-width: 1.0; stroke-dasharray: 5.0,5.0;" x1="697.5" x2="697.5" y1="38.2969" y2="1390.6094"/><line style="stroke: #A80036; stroke-width: 1.0; stroke-dasharray: 5.0,5.0;" x1="781" x2="781" y1="38.2969" y2="1390.6094"/><line style="stroke: #A80036; stroke-width: 1.0; stroke-dasharray: 5.0,5.0;" x1="882" x2="882" y1="38.2969" y2="1390.6094"/><rect fill="#FEFECE" filter="url(#f1vps8o89xwdl4)" height="30.2969" style="stroke: #A80036; stroke-width: 1.5;" width="45" x="8" y="3"/><text fill="#000000" font-family="sans-serif" font-size="14" lengthAdjust="spacingAndGlyphs" textLength="31" x="15" y="22.9951">user</text><rect fill="#FEFECE" filter="url(#f1vps8o89xwdl4)" height="30.2969" style="stroke: #A80036; stroke-width: 1.5;" width="45" x="8" y="1389.6094"/><text fill="#000000" font-family="sans-serif" font-size="14" lengthAdjust="spacingAndGlyphs" textLength="31" x="15" y="1409.6045">user</text><rect fill="#FEFECE" filter="url(#f1vps8o89xwdl4)" height="30.2969" style="stroke: #A80036; stroke-width: 1.5;" width="66" x="164.5" y="3"/><text fill="#000000" font-family="sans-serif" font-size="14" lengthAdjust="spacingAndGlyphs" textLength="52" x="171.5" y="22.9951">dataset</text><rect fill="#FEFECE" filter="url(#f1vps8o89xwdl4)" height="30.2969" style="stroke: #A80036; stroke-width: 1.5;" width="66" x="164.5" y="1389.6094"/><text fill="#000000" font-family="sans-serif" font-size="14" lengthAdjust="spacingAndGlyphs" textLength="52" x="171.5" y="1409.6045">dataset</text><rect fill="#FEFECE" filter="url(#f1vps8o89xwdl4)" height="30.2969" style="stroke: #A80036; stroke-width: 1.5;" width="35" x="345" y="3"/><text fill="#000000" font-family="sans-serif" font-size="14" lengthAdjust="spacingAndGlyphs" textLength="21" x="352" y="22.9951">job</text><rect fill="#FEFECE" filter="url(#f1vps8o89xwdl4)" height="30.2969" style="stroke: #A80036; stroke-width: 1.5;" width="35" x="345" y="1389.6094"/><text fill="#000000" font-family="sans-serif" font-size="14" lengthAdjust="spacingAndGlyphs" textLength="21" x="352" y="1409.6045">job</text><rect fill="#FEFECE" filter="url(#f1vps8o89xwdl4)" height="30.2969" style="stroke: #A80036; stroke-width: 1.5;" width="56" x="588.5" y="3"/><text fill="#000000" font-family="sans-serif" font-size="14" lengthAdjust="spacingAndGlyphs" textLength="42" x="595.5" y="22.9951">series</text><rect fill="#FEFECE" filter="url(#f1vps8o89xwdl4)" height="30.2969" style="stroke: #A80036; stroke-width: 1.5;" width="56" x="588.5" y="1389.6094"/><text fill="#000000" font-family="sans-serif" font-size="14" lengthAdjust="spacingAndGlyphs" textLength="42" x="595.5" y="1409.6045">series</text><rect fill="#FEFECE" filter="url(#f1vps8o89xwdl4)" height="30.2969" style="stroke: #A80036; stroke-width: 1.5;" width="74" x="658.5" y="3"/><text fill="#000000" font-family="sans-serif" font-size="14" lengthAdjust="spacingAndGlyphs" textLength="60" x="665.5" y="22.9951">backend</text><rect fill="#FEFECE" filter="url(#f1vps8o89xwdl4)" height="30.2969" style="stroke: #A80036; stroke-width: 1.5;" width="74" x="658.5" y="1389.6094"/><text fill="#000000" font-family="sans-serif" font-size="14" lengthAdjust="spacingAndGlyphs" textLength="60" x="665.5" y="1409.6045">backend</text><rect fill="#FEFECE" filter="url(#f1vps8o89xwdl4)" height="30.2969" style="stroke: #A80036; stroke-width: 1.5;" width="57" x="751" y="3"/><text fill="#000000" font-family="sans-serif" font-size="14" lengthAdjust="spacingAndGlyphs" textLength="43" x="758" y="22.9951">model</text><rect fill="#FEFECE" filter="url(#f1vps8o89xwdl4)" height="30.2969" style="stroke: #A80036; stroke-width: 1.5;" width="57" x="751" y="1389.6094"/><text fill="#000000" font-family="sans-serif" font-size="14" lengthAdjust="spacingAndGlyphs" textLength="43" x="758" y="1409.6045">model</text><rect fill="#FEFECE" filter="url(#f1vps8o89xwdl4)" height="30.2969" style="stroke: #A80036; stroke-width: 1.5;" width="116" x="822" y="3"/><text fill="#000000" font-family="sans-serif" font-size="14" lengthAdjust="spacingAndGlyphs" textLength="102" x="829" y="22.9951">seriesManager</text><rect fill="#FEFECE" filter="url(#f1vps8o89xwdl4)" height="30.2969" style="stroke: #A80036; stroke-width: 1.5;" width="116" x="822" y="1389.6094"/><text fill="#000000" font-family="sans-serif" font-size="14" lengthAdjust="spacingAndGlyphs" textLength="102" x="829" y="1409.6045">seriesManager</text><polygon fill="#A80036" points="187.5,65.4297,197.5,69.4297,187.5,73.4297,191.5,69.4297" style="stroke: #A80036; stroke-width: 1.0;"/><line style="stroke: #A80036; stroke-width: 1.0;" x1="32.5" x2="193.5" y1="69.4297" y2="69.4297"/><text fill="#000000" font-family="sans-serif" font-size="13" font-weight="bold" lengthAdjust="spacingAndGlyphs" textLength="9" x="39.5" y="64.3638">1</text><text fill="#000000" font-family="sans-serif" font-size="13" lengthAdjust="spacingAndGlyphs" textLength="78" x="52.5" y="64.3638">提交数据文件</text><polygon fill="#A80036" points="43.5,94.5625,33.5,98.5625,43.5,102.5625,39.5,98.5625" style="stroke: #A80036; stroke-width: 1.0;"/><line style="stroke: #A80036; stroke-width: 1.0;" x1="37.5" x2="198.5" y1="98.5625" y2="98.5625"/><text fill="#000000" font-family="sans-serif" font-size="13" font-weight="bold" lengthAdjust="spacingAndGlyphs" textLength="9" x="49.5" y="93.4966">2</text><text fill="#000000" font-family="sans-serif" font-size="13" lengthAdjust="spacingAndGlyphs" textLength="117" x="62.5" y="93.4966">创建数据集并返回ID</text><polygon fill="#A80036" points="187.5,123.6953,197.5,127.6953,187.5,131.6953,191.5,127.6953" style="stroke: #A80036; stroke-width: 1.0;"/><line style="stroke: #A80036; stroke-width: 1.0;" x1="32.5" x2="193.5" y1="127.6953" y2="127.6953"/><text fill="#000000" font-family="sans-serif" font-size="13" font-weight="bold" lengthAdjust="spacingAndGlyphs" textLength="9" x="39.5" y="122.6294">3</text><text fill="#000000" font-family="sans-serif" font-size="13" lengthAdjust="spacingAndGlyphs" textLength="78" x="52.5" y="122.6294">预览数据文件</text><line style="stroke: #A80036; stroke-width: 1.0; stroke-dasharray: 2.0,2.0;" x1="199.5" x2="241.5" y1="156.8281" y2="156.8281"/><line style="stroke: #A80036; stroke-width: 1.0; stroke-dasharray: 2.0,2.0;" x1="241.5" x2="241.5" y1="156.8281" y2="169.8281"/><line style="stroke: #A80036; stroke-width: 1.0; stroke-dasharray: 2.0,2.0;" x1="200.5" x2="241.5" y1="169.8281" y2="169.8281"/><polygon fill="#A80036" points="210.5,165.8281,200.5,169.8281,210.5,173.8281,206.5,169.8281" style="stroke: #A80036; stroke-width: 1.0;"/><text fill="#000000" font-family="sans-serif" font-size="13" font-weight="bold" lengthAdjust="spacingAndGlyphs" textLength="9" x="206.5" y="151.7622">4</text><text fill="#000000" font-family="sans-serif" font-size="13" lengthAdjust="spacingAndGlyphs" textLength="73" x="219.5" y="151.7622">随机选取5行</text><polygon fill="#A80036" points="43.5,194.9609,33.5,198.9609,43.5,202.9609,39.5,198.9609" style="stroke: #A80036; stroke-width: 1.0;"/><line style="stroke: #A80036; stroke-width: 1.0;" x1="37.5" x2="198.5" y1="198.9609" y2="198.9609"/><text fill="#000000" font-family="sans-serif" font-size="13" font-weight="bold" lengthAdjust="spacingAndGlyphs" textLength="9" x="49.5" y="193.895">5</text><text fill="#000000" font-family="sans-serif" font-size="13" lengthAdjust="spacingAndGlyphs" textLength="78" x="62.5" y="193.895">返回预览数据</text><polygon fill="#A80036" points="187.5,224.0938,197.5,228.0938,187.5,232.0938,191.5,228.0938" style="stroke: #A80036; stroke-width: 1.0;"/><line style="stroke: #A80036; stroke-width: 1.0;" x1="32.5" x2="193.5" y1="228.0938" y2="228.0938"/><text fill="#000000" font-family="sans-serif" font-size="13" font-weight="bold" lengthAdjust="spacingAndGlyphs" textLength="9" x="39.5" y="223.0278">6</text><text fill="#000000" font-family="sans-serif" font-size="13" lengthAdjust="spacingAndGlyphs" textLength="130" x="52.5" y="223.0278">获取用户可用的数据集</text><polygon fill="#A80036" points="352.5,253.2266,362.5,257.2266,352.5,261.2266,356.5,257.2266" style="stroke: #A80036; stroke-width: 1.0;"/><line style="stroke: #A80036; stroke-width: 1.0;" x1="32.5" x2="358.5" y1="257.2266" y2="257.2266"/><text fill="#000000" font-family="sans-serif" font-size="13" font-weight="bold" lengthAdjust="spacingAndGlyphs" textLength="9" x="39.5" y="252.1606">7</text><text fill="#000000" font-family="sans-serif" font-size="13" lengthAdjust="spacingAndGlyphs" textLength="104" x="52.5" y="252.1606">提交选择的数据集</text><polygon fill="#A80036" points="43.5,282.3594,33.5,286.3594,43.5,290.3594,39.5,286.3594" style="stroke: #A80036; stroke-width: 1.0;"/><line style="stroke: #A80036; stroke-width: 1.0;" x1="37.5" x2="363.5" y1="286.3594" y2="286.3594"/><text fill="#000000" font-family="sans-serif" font-size="13" font-weight="bold" lengthAdjust="spacingAndGlyphs" textLength="9" x="49.5" y="281.2935">8</text><text fill="#000000" font-family="sans-serif" font-size="13" lengthAdjust="spacingAndGlyphs" textLength="97" x="62.5" y="281.2935">创建job，返回ID</text><path d="M369,299.3594 L369,324.3594 L449,324.3594 L449,309.3594 L439,299.3594 L369,299.3594 " fill="#FBFB77" filter="url(#f1vps8o89xwdl4)" style="stroke: #A80036; stroke-width: 1.0;"/><path d="M439,299.3594 L439,309.3594 L449,309.3594 L439,299.3594 " fill="#FBFB77" style="stroke: #A80036; stroke-width: 1.0;"/><text fill="#000000" font-family="sans-serif" font-size="13" lengthAdjust="spacingAndGlyphs" textLength="59" x="375" y="316.4263">CREATED</text><polygon fill="#A80036" points="352.5,350.625,362.5,354.625,352.5,358.625,356.5,354.625" style="stroke: #A80036; stroke-width: 1.0;"/><line style="stroke: #A80036; stroke-width: 1.0;" x1="32.5" x2="358.5" y1="354.625" y2="354.625"/><text fill="#000000" font-family="sans-serif" font-size="13" font-weight="bold" lengthAdjust="spacingAndGlyphs" textLength="9" x="39.5" y="349.5591">9</text><text fill="#000000" font-family="sans-serif" font-size="13" lengthAdjust="spacingAndGlyphs" textLength="180" x="52.5" y="349.5591">提交ts, values, group_by设置</text><line style="stroke: #A80036; stroke-width: 1.0; stroke-dasharray: 2.0,2.0;" x1="364.5" x2="406.5" y1="383.7578" y2="383.7578"/><line style="stroke: #A80036; stroke-width: 1.0; stroke-dasharray: 2.0,2.0;" x1="406.5" x2="406.5" y1="383.7578" y2="396.7578"/><line style="stroke: #A80036; stroke-width: 1.0; stroke-dasharray: 2.0,2.0;" x1="365.5" x2="406.5" y1="396.7578" y2="396.7578"/><polygon fill="#A80036" points="375.5,392.7578,365.5,396.7578,375.5,400.7578,371.5,396.7578" style="stroke: #A80036; stroke-width: 1.0;"/><text fill="#000000" font-family="sans-serif" font-size="13" font-weight="bold" lengthAdjust="spacingAndGlyphs" textLength="18" x="371.5" y="378.6919">10</text><text fill="#000000" font-family="sans-serif" font-size="13" lengthAdjust="spacingAndGlyphs" textLength="65" x="393.5" y="378.6919">划分数据集</text><polygon fill="#A80036" points="606.5,421.8906,616.5,425.8906,606.5,429.8906,610.5,425.8906" style="stroke: #A80036; stroke-width: 1.0;"/><line style="stroke: #A80036; stroke-width: 1.0;" x1="364.5" x2="612.5" y1="425.8906" y2="425.8906"/><text fill="#000000" font-family="sans-serif" font-size="13" font-weight="bold" lengthAdjust="spacingAndGlyphs" textLength="18" x="371.5" y="420.8247">11</text><text fill="#000000" font-family="sans-serif" font-size="13" lengthAdjust="spacingAndGlyphs" textLength="78" x="393.5" y="420.8247">创建时间序列</text><path d="M623,438.8906 L623,463.8906 L703,463.8906 L703,448.8906 L693,438.8906 L623,438.8906 " fill="#FBFB77" filter="url(#f1vps8o89xwdl4)" style="stroke: #A80036; stroke-width: 1.0;"/><path d="M693,438.8906 L693,448.8906 L703,448.8906 L693,438.8906 " fill="#FBFB77" style="stroke: #A80036; stroke-width: 1.0;"/><text fill="#000000" font-family="sans-serif" font-size="13" lengthAdjust="spacingAndGlyphs" textLength="59" x="629" y="455.9575">CREATED</text><polygon fill="#A80036" points="43.5,490.1563,33.5,494.1563,43.5,498.1563,39.5,494.1563" style="stroke: #A80036; stroke-width: 1.0;"/><line style="stroke: #A80036; stroke-width: 1.0;" x1="37.5" x2="363.5" y1="494.1563" y2="494.1563"/><text fill="#000000" font-family="sans-serif" font-size="13" font-weight="bold" lengthAdjust="spacingAndGlyphs" textLength="18" x="49.5" y="489.0903">12</text><text fill="#000000" font-family="sans-serif" font-size="13" lengthAdjust="spacingAndGlyphs" textLength="102" x="71.5" y="489.0903">返回时间序列和id</text><polygon fill="#A80036" points="352.5,519.2891,362.5,523.2891,352.5,527.2891,356.5,523.2891" style="stroke: #A80036; stroke-width: 1.0;"/><line style="stroke: #A80036; stroke-width: 1.0;" x1="32.5" x2="358.5" y1="523.2891" y2="523.2891"/><text fill="#000000" font-family="sans-serif" font-size="13" font-weight="bold" lengthAdjust="spacingAndGlyphs" textLength="18" x="39.5" y="518.2231">13</text><text fill="#000000" font-family="sans-serif" font-size="13" lengthAdjust="spacingAndGlyphs" textLength="149" x="61.5" y="518.2231">提交所有ts的feature设置</text><polygon fill="#A80036" points="606.5,548.4219,616.5,552.4219,606.5,556.4219,610.5,552.4219" style="stroke: #A80036; stroke-width: 1.0;"/><line style="stroke: #A80036; stroke-width: 1.0;" x1="364.5" x2="612.5" y1="552.4219" y2="552.4219"/><text fill="#000000" font-family="sans-serif" font-size="13" font-weight="bold" lengthAdjust="spacingAndGlyphs" textLength="18" x="371.5" y="547.356">14</text><text fill="#000000" font-family="sans-serif" font-size="13" lengthAdjust="spacingAndGlyphs" textLength="189" x="393.5" y="547.356">储存feature到对应各个时间序列</text><path d="M623,565.4219 L623,590.4219 L740,590.4219 L740,575.4219 L730,565.4219 L623,565.4219 " fill="#FBFB77" filter="url(#f1vps8o89xwdl4)" style="stroke: #A80036; stroke-width: 1.0;"/><path d="M730,565.4219 L730,575.4219 L740,575.4219 L730,565.4219 " fill="#FBFB77" style="stroke: #A80036; stroke-width: 1.0;"/><text fill="#000000" font-family="sans-serif" font-size="13" lengthAdjust="spacingAndGlyphs" textLength="96" x="629" y="582.4888">UNCOMMITTED</text><path d="M369,604.5547 L369,629.5547 L486,629.5547 L486,614.5547 L476,604.5547 L369,604.5547 " fill="#FBFB77" filter="url(#f1vps8o89xwdl4)" style="stroke: #A80036; stroke-width: 1.0;"/><path d="M476,604.5547 L476,614.5547 L486,614.5547 L476,604.5547 " fill="#FBFB77" style="stroke: #A80036; stroke-width: 1.0;"/><text fill="#000000" font-family="sans-serif" font-size="13" lengthAdjust="spacingAndGlyphs" textLength="96" x="375" y="621.6216">UNCOMMITTED</text><polygon fill="#A80036" points="685.5,655.8203,695.5,659.8203,685.5,663.8203,689.5,659.8203" style="stroke: #A80036; stroke-width: 1.0;"/><line style="stroke: #A80036; stroke-width: 1.0;" x1="32.5" x2="691.5" y1="659.8203" y2="659.8203"/><text fill="#000000" font-family="sans-serif" font-size="13" font-weight="bold" lengthAdjust="spacingAndGlyphs" textLength="18" x="39.5" y="654.7544">15</text><text fill="#000000" font-family="sans-serif" font-size="13" lengthAdjust="spacingAndGlyphs" textLength="182" x="61.5" y="654.7544">获取用户可用的模型和对应超参</text><polygon fill="#A80036" points="352.5,684.9531,362.5,688.9531,352.5,692.9531,356.5,688.9531" style="stroke: #A80036; stroke-width: 1.0;"/><line style="stroke: #A80036; stroke-width: 1.0;" x1="32.5" x2="358.5" y1="688.9531" y2="688.9531"/><text fill="#000000" font-family="sans-serif" font-size="13" font-weight="bold" lengthAdjust="spacingAndGlyphs" textLength="18" x="39.5" y="683.8872">16</text><text fill="#000000" font-family="sans-serif" font-size="13" lengthAdjust="spacingAndGlyphs" textLength="286" x="61.5" y="683.8872">提交所有时间序列选用的模型和超参，并发出请求</text><polygon fill="#A80036" points="606.5,714.0859,616.5,718.0859,606.5,722.0859,610.5,718.0859" style="stroke: #A80036; stroke-width: 1.0;"/><line style="stroke: #A80036; stroke-width: 1.0;" x1="364.5" x2="612.5" y1="718.0859" y2="718.0859"/><text fill="#000000" font-family="sans-serif" font-size="13" font-weight="bold" lengthAdjust="spacingAndGlyphs" textLength="18" x="371.5" y="713.02">17</text><text fill="#000000" font-family="sans-serif" font-size="13" lengthAdjust="spacingAndGlyphs" textLength="208" x="393.5" y="713.02">提交对应时间序列选用的模型和超参</text><polygon fill="#A80036" points="769.5,743.2188,779.5,747.2188,769.5,751.2188,773.5,747.2188" style="stroke: #A80036; stroke-width: 1.0;"/><line style="stroke: #A80036; stroke-width: 1.0;" x1="618.5" x2="775.5" y1="747.2188" y2="747.2188"/><text fill="#000000" font-family="sans-serif" font-size="13" font-weight="bold" lengthAdjust="spacingAndGlyphs" textLength="18" x="625.5" y="742.1528">18</text><text fill="#000000" font-family="sans-serif" font-size="13" lengthAdjust="spacingAndGlyphs" textLength="117" x="647.5" y="742.1528">创建模型，写入超参</text><polygon fill="#A80036" points="870,772.3516,880,776.3516,870,780.3516,874,776.3516" style="stroke: #A80036; stroke-width: 1.0;"/><line style="stroke: #A80036; stroke-width: 1.0;" x1="618.5" x2="876" y1="776.3516" y2="776.3516"/><text fill="#000000" font-family="sans-serif" font-size="13" font-weight="bold" lengthAdjust="spacingAndGlyphs" textLength="18" x="625.5" y="771.2856">19</text><text fill="#000000" font-family="sans-serif" font-size="13" lengthAdjust="spacingAndGlyphs" textLength="104" x="647.5" y="771.2856">提交模型执行请求</text><path d="M623,789.3516 L623,814.3516 L720,814.3516 L720,799.3516 L710,789.3516 L623,789.3516 " fill="#FBFB77" filter="url(#f1vps8o89xwdl4)" style="stroke: #A80036; stroke-width: 1.0;"/><path d="M710,789.3516 L710,799.3516 L720,799.3516 L710,789.3516 " fill="#FBFB77" style="stroke: #A80036; stroke-width: 1.0;"/><text fill="#000000" font-family="sans-serif" font-size="13" lengthAdjust="spacingAndGlyphs" textLength="76" x="629" y="806.4185">COMMITTED</text><polygon fill="#A80036" points="375.5,840.6172,365.5,844.6172,375.5,848.6172,371.5,844.6172" style="stroke: #A80036; stroke-width: 1.0;"/><line style="stroke: #A80036; stroke-width: 1.0; stroke-dasharray: 2.0,2.0;" x1="369.5" x2="617.5" y1="844.6172" y2="844.6172"/><text fill="#000000" font-family="sans-serif" font-size="13" font-weight="bold" lengthAdjust="spacingAndGlyphs" textLength="18" x="381.5" y="839.5513">20</text><text fill="#000000" font-family="sans-serif" font-size="13" lengthAdjust="spacingAndGlyphs" textLength="182" x="403.5" y="839.5513">返回模型创建成功，已提交执行</text><path d="M369,857.6172 L369,882.6172 L455,882.6172 L455,867.6172 L445,857.6172 L369,857.6172 " fill="#FBFB77" filter="url(#f1vps8o89xwdl4)" style="stroke: #A80036; stroke-width: 1.0;"/><path d="M445,857.6172 L445,867.6172 L455,867.6172 L445,857.6172 " fill="#FBFB77" style="stroke: #A80036; stroke-width: 1.0;"/><text fill="#000000" font-family="sans-serif" font-size="13" lengthAdjust="spacingAndGlyphs" textLength="65" x="375" y="874.6841">COMITTED</text><rect fill="#EEEEEE" filter="url(#f1vps8o89xwdl4)" height="3" style="stroke: #EEEEEE; stroke-width: 1.0;" width="944" x="3" y="912.3164"/><line style="stroke: #000000; stroke-width: 1.0;" x1="3" x2="947" y1="912.3164" y2="912.3164"/><line style="stroke: #000000; stroke-width: 1.0;" x1="3" x2="947" y1="915.3164" y2="915.3164"/><rect fill="#EEEEEE" filter="url(#f1vps8o89xwdl4)" height="23.1328" style="stroke: #000000; stroke-width: 2.0;" width="75" x="437.5" y="901.75"/><text fill="#000000" font-family="sans-serif" font-size="13" font-weight="bold" lengthAdjust="spacingAndGlyphs" textLength="56" x="443.5" y="917.8169">训练成功</text><polygon fill="#A80036" points="629.5,952.0156,619.5,956.0156,629.5,960.0156,625.5,956.0156" style="stroke: #A80036; stroke-width: 1.0;"/><line style="stroke: #A80036; stroke-width: 1.0; stroke-dasharray: 2.0,2.0;" x1="623.5" x2="881" y1="956.0156" y2="956.0156"/><text fill="#000000" font-family="sans-serif" font-size="13" font-weight="bold" lengthAdjust="spacingAndGlyphs" textLength="18" x="635.5" y="950.9497">21</text><text fill="#000000" font-family="sans-serif" font-size="13" lengthAdjust="spacingAndGlyphs" textLength="155" x="657.5" y="950.9497">完成执行series，返回结果</text><path d="M623,969.0156 L623,994.0156 L682,994.0156 L682,979.0156 L672,969.0156 L623,969.0156 " fill="#FBFB77" filter="url(#f1vps8o89xwdl4)" style="stroke: #A80036; stroke-width: 1.0;"/><path d="M672,969.0156 L672,979.0156 L682,979.0156 L672,969.0156 " fill="#FBFB77" style="stroke: #A80036; stroke-width: 1.0;"/><text fill="#000000" font-family="sans-serif" font-size="13" lengthAdjust="spacingAndGlyphs" textLength="38" x="629" y="986.0825">DONE</text><polygon fill="#A80036" points="769.5,1020.2813,779.5,1024.2813,769.5,1028.2813,773.5,1024.2813" style="stroke: #A80036; stroke-width: 1.0;"/><line style="stroke: #A80036; stroke-width: 1.0;" x1="618.5" x2="775.5" y1="1024.2813" y2="1024.2813"/><text fill="#000000" font-family="sans-serif" font-size="13" font-weight="bold" lengthAdjust="spacingAndGlyphs" textLength="18" x="625.5" y="1019.2153">22</text><text fill="#000000" font-family="sans-serif" font-size="13" lengthAdjust="spacingAndGlyphs" textLength="52" x="647.5" y="1019.2153">存储结果</text><polygon fill="#A80036" points="375.5,1049.4141,365.5,1053.4141,375.5,1057.4141,371.5,1053.4141" style="stroke: #A80036; stroke-width: 1.0;"/><line style="stroke: #A80036; stroke-width: 1.0;" x1="369.5" x2="617.5" y1="1053.4141" y2="1053.4141"/><text fill="#000000" font-family="sans-serif" font-size="13" font-weight="bold" lengthAdjust="spacingAndGlyphs" textLength="18" x="381.5" y="1048.3481">23</text><text fill="#000000" font-family="sans-serif" font-size="13" lengthAdjust="spacingAndGlyphs" textLength="78" x="403.5" y="1048.3481">已经执行完毕</text><line style="stroke: #A80036; stroke-width: 1.0; stroke-dasharray: 2.0,2.0;" x1="364.5" x2="406.5" y1="1082.5469" y2="1082.5469"/><line style="stroke: #A80036; stroke-width: 1.0; stroke-dasharray: 2.0,2.0;" x1="406.5" x2="406.5" y1="1082.5469" y2="1095.5469"/><line style="stroke: #A80036; stroke-width: 1.0; stroke-dasharray: 2.0,2.0;" x1="365.5" x2="406.5" y1="1095.5469" y2="1095.5469"/><polygon fill="#A80036" points="375.5,1091.5469,365.5,1095.5469,375.5,1099.5469,371.5,1095.5469" style="stroke: #A80036; stroke-width: 1.0;"/><text fill="#000000" font-family="sans-serif" font-size="13" font-weight="bold" lengthAdjust="spacingAndGlyphs" textLength="18" x="371.5" y="1077.481">24</text><text fill="#000000" font-family="sans-serif" font-size="13" lengthAdjust="spacingAndGlyphs" textLength="142" x="393.5" y="1077.481">等待所有series执行完毕</text><path d="M369,1108.5469 L369,1133.5469 L428,1133.5469 L428,1118.5469 L418,1108.5469 L369,1108.5469 " fill="#FBFB77" filter="url(#f1vps8o89xwdl4)" style="stroke: #A80036; stroke-width: 1.0;"/><path d="M418,1108.5469 L418,1118.5469 L428,1118.5469 L418,1108.5469 " fill="#FBFB77" style="stroke: #A80036; stroke-width: 1.0;"/><text fill="#000000" font-family="sans-serif" font-size="13" lengthAdjust="spacingAndGlyphs" textLength="38" x="375" y="1125.6138">DONE</text><polygon fill="#A80036" points="43.5,1159.8125,33.5,1163.8125,43.5,1167.8125,39.5,1163.8125" style="stroke: #A80036; stroke-width: 1.0;"/><line style="stroke: #A80036; stroke-width: 1.0;" x1="37.5" x2="363.5" y1="1163.8125" y2="1163.8125"/><text fill="#000000" font-family="sans-serif" font-size="13" font-weight="bold" lengthAdjust="spacingAndGlyphs" textLength="18" x="49.5" y="1158.7466">25</text><text fill="#000000" font-family="sans-serif" font-size="13" lengthAdjust="spacingAndGlyphs" textLength="104" x="71.5" y="1158.7466">发送执行完成请求</text><rect fill="#EEEEEE" filter="url(#f1vps8o89xwdl4)" height="3" style="stroke: #EEEEEE; stroke-width: 1.0;" width="944" x="3" y="1192.3789"/><line style="stroke: #000000; stroke-width: 1.0;" x1="3" x2="947" y1="1192.3789" y2="1192.3789"/><line style="stroke: #000000; stroke-width: 1.0;" x1="3" x2="947" y1="1195.3789" y2="1195.3789"/><rect fill="#EEEEEE" filter="url(#f1vps8o89xwdl4)" height="23.1328" style="stroke: #000000; stroke-width: 2.0;" width="75" x="437.5" y="1181.8125"/><text fill="#000000" font-family="sans-serif" font-size="13" font-weight="bold" lengthAdjust="spacingAndGlyphs" textLength="56" x="443.5" y="1197.8794">训练失败</text><polygon fill="#A80036" points="629.5,1232.0781,619.5,1236.0781,629.5,1240.0781,625.5,1236.0781" style="stroke: #A80036; stroke-width: 1.0;"/><line style="stroke: #A80036; stroke-width: 1.0; stroke-dasharray: 2.0,2.0;" x1="623.5" x2="881" y1="1236.0781" y2="1236.0781"/><text fill="#000000" font-family="sans-serif" font-size="13" font-weight="bold" lengthAdjust="spacingAndGlyphs" textLength="18" x="635.5" y="1231.0122">26</text><text fill="#000000" font-family="sans-serif" font-size="13" lengthAdjust="spacingAndGlyphs" textLength="52" x="657.5" y="1231.0122">出错信息</text><path d="M623,1249.0781 L623,1274.0781 L715,1274.0781 L715,1259.0781 L705,1249.0781 L623,1249.0781 " fill="#FBFB77" filter="url(#f1vps8o89xwdl4)" style="stroke: #A80036; stroke-width: 1.0;"/><path d="M705,1249.0781 L705,1259.0781 L715,1259.0781 L705,1249.0781 " fill="#FBFB77" style="stroke: #A80036; stroke-width: 1.0;"/><text fill="#000000" font-family="sans-serif" font-size="13" lengthAdjust="spacingAndGlyphs" textLength="71" x="629" y="1266.145">EXCEPTION</text><polygon fill="#A80036" points="375.5,1300.3438,365.5,1304.3438,375.5,1308.3438,371.5,1304.3438" style="stroke: #A80036; stroke-width: 1.0;"/><line style="stroke: #A80036; stroke-width: 1.0;" x1="369.5" x2="617.5" y1="1304.3438" y2="1304.3438"/><text fill="#000000" font-family="sans-serif" font-size="13" font-weight="bold" lengthAdjust="spacingAndGlyphs" textLength="18" x="381.5" y="1299.2778">27</text><text fill="#000000" font-family="sans-serif" font-size="13" lengthAdjust="spacingAndGlyphs" textLength="52" x="403.5" y="1299.2778">出错信息</text><path d="M369,1317.3438 L369,1342.3438 L461,1342.3438 L461,1327.3438 L451,1317.3438 L369,1317.3438 " fill="#FBFB77" filter="url(#f1vps8o89xwdl4)" style="stroke: #A80036; stroke-width: 1.0;"/><path d="M451,1317.3438 L451,1327.3438 L461,1327.3438 L451,1317.3438 " fill="#FBFB77" style="stroke: #A80036; stroke-width: 1.0;"/><text fill="#000000" font-family="sans-serif" font-size="13" lengthAdjust="spacingAndGlyphs" textLength="71" x="375" y="1334.4106">EXCEPTION</text><polygon fill="#A80036" points="43.5,1368.6094,33.5,1372.6094,43.5,1376.6094,39.5,1372.6094" style="stroke: #A80036; stroke-width: 1.0;"/><line style="stroke: #A80036; stroke-width: 1.0;" x1="37.5" x2="363.5" y1="1372.6094" y2="1372.6094"/><text fill="#000000" font-family="sans-serif" font-size="13" font-weight="bold" lengthAdjust="spacingAndGlyphs" textLength="18" x="49.5" y="1367.5435">28</text><text fill="#000000" font-family="sans-serif" font-size="13" lengthAdjust="spacingAndGlyphs" textLength="52" x="71.5" y="1367.5435">出错信息</text></g></svg>